<?xml version="1.0" encoding="utf-8"?>
<!-- Generator: Adobe Illustrator 26.1.0, SVG Export Plug-In . SVG Version: 6.00 Build 0)  -->
<svg version="1.1" id="Layer_1" xmlns="http://www.w3.org/2000/svg" xmlns:xlink="http://www.w3.org/1999/xlink" x="0px" y="0px"
	 width="219px" height="219px" viewBox="0 0 219 219" style="enable-background:new 0 0 219 219;" xml:space="preserve">
<style type="text/css">
	.st0{opacity:0.2;}
	.st1{fill:none;}
	.st2{fill:#A2CCBF;}
	.st3{fill:#FFFFFF;}
	.st4{opacity:0.5;fill:#93AEC8;}
</style>
<g class="st0">
	<path class="st1" d="M48.1,112c3.3,0.5,7.9,2,10.2,7.1c0,0,3.3-6.2,7.7-5.9c4.4,0.3,6.5,3.7,9.4,6.2c2.9,2.4,8,3,9,2.7
		c1-0.3-5.4,10-14.2,7.5c0,0-4.7,1.9-2.8,8.9c0,0-3.4,2.9-11-5.2c0,0-2.7,8.5-9.6,8.5c0,0,2.7-3,0.5-8.1c-2.2-5.1-2.2-13.4,7.8-13.8
		c0,0-1.5-3.9-6.8-4.4c0,0,0,0-0.1,0c-0.3,1.7-0.9,2.6-1.7,2.7c-0.7,0-1.4-0.7-1.7-2.2c-1.2,0.4-2.4,0.9-3.3,1.4
		c-7.8,4.2-9.8,16.1-5.3,23.5c2.2-1.5,4.2-2,5.2-1.2c1,0.9,0.4,3.1-1.1,5.5c8.1,6,21,4.3,29.7,0.7c3.4-1.5,7.1-3.5,9.9-5.9
		c6.5-5.7,12.1-14.4,14.1-22.9c0.5-2,0.8-5.3,0.6-7.5c0.3-2.2-0.1-5.4-0.6-7.5c-2.1-8.6-7.6-17.2-14.1-22.9
		c-2.8-2.4-6.5-4.5-9.9-5.9c-8.6-3.7-21.6-5.4-29.7,0.7c1.6,2.4,2.1,4.6,1.1,5.5c-0.9,0.9-3,0.4-5.2-1.2c-4.4,7.3-2.5,19.3,5.3,23.5
		c0.9,0.5,2.1,1,3.3,1.4c0.4-1.5,1-2.2,1.7-2.2c0.8,0,1.5,1,1.7,2.7c0,0,0,0,0.1,0c5.4-0.5,6.8-4.4,6.8-4.4c-10-0.4-10-8.7-7.8-13.8
		c2.2-5.1-0.5-8.1-0.5-8.1c7,0,9.6,8.5,9.6,8.5c7.6-8.1,11-5.2,11-5.2c-1.9,7,2.8,8.9,2.8,8.9c8.8-2.4,15.2,7.9,14.2,7.5
		c-1-0.3-6.1,0.2-9,2.7c-2.9,2.4-5,5.8-9.4,6.2c-4.4,0.3-7.7-5.9-7.7-5.9c-2.2,5.1-6.8,6.6-10.2,7.1c-0.3,1.7-1,2.5-1.8,2.5
		C47,109.5,47.8,110.3,48.1,112z"/>
	<path class="st1" d="M170.9,107c-3.3-0.5-7.9-2-10.2-7.1c0,0-3.3,6.2-7.7,5.9c-4.4-0.3-6.5-3.7-9.4-6.2c-2.9-2.4-8-3-9-2.7
		c-1,0.3,5.4-10,14.2-7.5c0,0,4.7-1.9,2.8-8.9c0,0,3.4-2.9,11,5.2c0,0,2.7-8.5,9.6-8.5c0,0-2.7,3-0.5,8.1c2.2,5.1,2.2,13.4-7.8,13.8
		c0,0,1.5,3.9,6.8,4.4c0,0,0,0,0.1,0c0.3-1.7,0.9-2.6,1.7-2.7c0.7,0,1.4,0.7,1.7,2.2c1.2-0.4,2.4-0.9,3.3-1.4
		c7.8-4.2,9.8-16.1,5.3-23.5c-2.2,1.5-4.2,2-5.2,1.2c-1-0.9-0.4-3.1,1.1-5.5c-8.1-6-21-4.3-29.7-0.7c-3.4,1.5-7.1,3.5-9.9,5.9
		c-6.5,5.7-12.1,14.4-14.1,22.9c-0.5,2-0.8,5.3-0.6,7.5c-0.3,2.2,0.1,5.4,0.6,7.5c2.1,8.6,7.6,17.2,14.1,22.9
		c2.8,2.4,6.5,4.5,9.9,5.9c8.6,3.7,21.6,5.4,29.7-0.7c-1.6-2.4-2.1-4.6-1.1-5.5c0.9-0.9,3-0.4,5.2,1.2c4.4-7.3,2.5-19.3-5.3-23.5
		c-0.9-0.5-2.1-1-3.3-1.4c-0.4,1.4-1,2.2-1.7,2.2c-0.8,0-1.5-1-1.7-2.7c0,0,0,0-0.1,0c-5.4,0.5-6.8,4.4-6.8,4.4
		c10,0.4,10,8.7,7.8,13.8c-2.2,5.1,0.5,8.1,0.5,8.1c-7,0-9.6-8.5-9.6-8.5c-7.6,8.1-11,5.2-11,5.2c1.9-7-2.8-8.9-2.8-8.9
		c-8.8,2.4-15.2-7.9-14.2-7.5c1,0.3,6.1-0.2,9-2.7c2.9-2.4,5-5.8,9.4-6.2c4.4-0.3,7.7,5.9,7.7,5.9c2.2-5.1,6.8-6.6,10.2-7.1
		c0.3-1.7,1-2.5,1.8-2.5C172,109.5,171.2,108.7,170.9,107z"/>
	<path class="st2" d="M87.2,20.7L87.2,20.7c0.1,0.2,0.3,0.3,0.4,0.5C87.5,21,87.4,20.9,87.2,20.7z"/>
	<path class="st2" d="M88.9,22.3L88.9,22.3c-0.3-0.3-0.6-0.5-0.9-0.8C88.2,21.8,88.5,22,88.9,22.3C88.8,22.3,88.8,22.3,88.9,22.3z"
		/>
	<path class="st3" d="M87.2,20.7C87.2,20.7,87.2,20.7,87.2,20.7L87.2,20.7c0.2,0.2,0.3,0.4,0.5,0.6c0.1,0.1,0.2,0.2,0.3,0.4
		c0.3,0.3,0.6,0.5,0.9,0.7l0,0c0,0,0,0,0,0c0,0,0,0,0,0c5.8,5.1,13.3,7.8,20.6,7.8v0c0,0,0,0,0,0s0,0,0,0v0c7.3,0,14.8-2.6,20.6-7.8
		c0,0,0,0,0,0c0,0,0,0,0,0l0,0c0.3-0.2,0.6-0.5,0.9-0.7c0.1-0.1,0.2-0.2,0.3-0.4c0.1-0.2,0.3-0.3,0.4-0.5l0,0c0,0,0,0,0,0l0,0
		c5.2-5.8,7.8-13.3,7.8-20.6c0,0,0,0,0,0h-4.4c0,0,0,0,0,0v0.1c0,6.5-2.5,13.2-7.3,18.3c-5.1,4.8-11.9,7.3-18.5,7.3
		c-6.5,0-13.3-2.5-18.5-7.3c-4.8-5.1-7.3-11.8-7.3-18.3V0c0,0,0,0,0,0h-4.4c0,0,0,0,0,0C79.4,7.3,82,14.8,87.2,20.7L87.2,20.7z"/>
	<path class="st4" d="M94.7,6.5c2.1,0.1,3.4-2,5.1-2.8c1.9-0.8,3.6-0.6,5,0.9c1.6,1.4,1.8,3.2,0.9,5c-0.8,1.8-2.8,3-2.8,5.2
		c0.1,2.2,1.7,4.6,3.9,5.1c0.3,0.1,1.9,0.2,2.6-0.1c0.7,0.3,2.3,0.1,2.6,0.1c2.1-0.5,3.8-2.9,3.9-5.1c0.1-2.1-2-3.4-2.8-5.2
		c-0.8-1.8-0.6-3.6,0.9-5c1.4-1.6,3.2-1.8,5-0.9c1.8,0.8,3,2.8,5.1,2.8c1.7-0.1,3.5-1,4.5-2.4c0.7-1,1-2.6,1-4.1h-20.3H89.2
		c0,1.5,0.3,3.1,1,4.1C91.1,5.5,93,6.5,94.7,6.5z"/>
	<path class="st4" d="M36,7.2c0.2-1.7,0.8-2.9,2.9-4.6c3-2.5,8.7,0.3,8.7,0.3c-1.8,0.9-4.4,0.8-5.8,6.1c-1.4,5.2,2.7,9,7.7,14.1
		c5.1,5.1,5.4,10.5,5.4,10.5c3.8-3.8,1.1-11.1,1.1-11.1c2.1-2.1,3.3-2.9,3.3-2.9c-2.9-1.4-3.7-3.8-3.7-3.8c3-3,1.6-5.5,1.6-5.5
		c-6.4,6-10.1-1.9-7.2-5.3c2-2.3,7.9-2,16.6-0.2C75.2,6.6,74.5,0,74.5,0v0h-47c0,0,0,0,0,0C29.2,1.4,35.8,8.9,36,7.2z"/>
	<path class="st4" d="M6,61.4C6,61.4,6,61.3,6,61.4c0.5-5.4,4.4-6.9,4.4-6.9c0.4,10,8.7,10,13.8,7.8c5.1-2.2,8.1,0.5,8.1,0.5
		c0-7-8.5-9.6-8.5-9.6c8.1-7.6,5.2-11,5.2-11c-7,1.9-8.9-2.8-8.9-2.8c2.4-8.8-7.9-15.2-7.5-14.2c0.3,1-0.2,6.1-2.7,9
		c-2.4,2.9-5.8,5-6.2,9.4c-0.3,4.4,5.9,7.7,5.9,7.7c-5.1,2.2-6.6,6.9-7.1,10.2c0.5-0.1,1.2-0.2,1.8-0.2C4.9,61.3,5.5,61.3,6,61.4z"
		/>
	<path class="st4" d="M44.7,103c-1.2-0.4-2.4-0.9-3.3-1.4c-7.8-4.2-9.8-16.1-5.3-23.5c2.2,1.5,4.2,2,5.2,1.2c1-0.9,0.4-3.1-1.1-5.5
		c-0.5-0.8-1.2-1.6-1.9-2.4c0,0,0,0,0,0c0,0,0,0,0,0c-0.8-0.8-1.6-1.4-2.4-1.9c-2.4-1.6-4.6-2.1-5.5-1.1c-0.9,0.9-0.4,3,1.1,5.2
		C24,78,12,76,7.8,68.2c-0.5-0.9-1-2.1-1.4-3.3c-0.6,0.2-1.4,0.3-2.1,0.3c-0.7,0-1.4-0.1-2-0.2c0,0.2,0,0.3,0,0.3
		C6,82.1,25.3,80,25.3,80l-8,8c-0.3-0.9-0.7-1.7-1.4-2.4c-2.3-2.3-6.1-2.3-8.4,0c-2.3,2.3-2.3,6.1,0,8.4C7.5,94,7.6,94,7.6,94.1
		c-0.7,0.3-1.4,0.7-2,1.3c-2.3,2.3-2.3,6.1,0,8.4l0,0c2.3,2.3,6.1,2.3,8.4,0c0.6-0.6,1-1.3,1.3-2c0.1,0.1,0.1,0.1,0.2,0.2
		c2.3,2.3,6.1,2.3,8.4,0c2.3-2.3,2.3-6.1,0-8.4c-0.7-0.7-1.6-1.2-2.5-1.4l8-8c0,0-2.1,19.3,14.7,23c0,0,0.1,0,0.3,0
		c-0.1-0.6-0.2-1.3-0.2-2C44.4,104.4,44.5,103.7,44.7,103z"/>
	<path class="st4" d="M6.5,64.9c1.5-0.3,2.2-1,2.2-1.7c0-0.8-0.9-1.5-2.6-1.7c-0.5-0.1-1.1-0.1-1.7-0.1c-0.6,0-1.2,0.1-1.8,0.2
		c-1.7,0.3-2.5,1-2.5,1.8C0,64,0.8,64.7,2.3,65c0.6,0.1,1.3,0.2,2,0.2C5.1,65.1,5.8,65,6.5,64.9z"/>
	<path class="st4" d="M88.9,22.3C88.8,22.3,88.8,22.3,88.9,22.3c-0.3-0.3-0.6-0.5-0.9-0.8c-0.1-0.1-0.2-0.2-0.3-0.4
		c-0.1-0.2-0.3-0.4-0.5-0.5c0,0,0,0,0,0c-2.8,3.1-13.6,14-23.2,9.9c0,0-3.3,1.2,2.8,7.2c0,0-4.1,4.6-3.3,8.3c0,0,0,0,0,0l0,0
		c3.7,0.8,8.4-3.3,8.4-3.3c6,6.2,7.2,2.8,7.2,2.8C74.9,36,85.8,25.1,88.9,22.3C88.9,22.4,88.9,22.4,88.9,22.3
		C88.9,22.3,88.9,22.3,88.9,22.3z"/>
	<path class="st4" d="M48.1,107c3.3-0.5,7.9-2,10.2-7.1c0,0,3.3,6.2,7.7,5.9c4.4-0.3,6.5-3.7,9.4-6.2c2.9-2.4,8-3,9-2.7
		c1,0.3-5.4-10-14.2-7.5c0,0-4.7-1.9-2.8-8.9c0,0-3.4-2.9-11,5.2c0,0-2.7-8.5-9.6-8.5c0,0,2.7,3,0.5,8.1C45,90.4,45,98.7,55,99.1
		c0,0-1.5,3.9-6.8,4.4c0,0,0,0-0.1,0c0.1,0.5,0.1,1.1,0.1,1.7C48.2,105.9,48.2,106.5,48.1,107z"/>
	<path class="st4" d="M48.1,107c0.1-0.6,0.2-1.2,0.2-1.8c0-0.6,0-1.2-0.1-1.7c-0.3-1.7-0.9-2.6-1.7-2.7c-0.7,0-1.4,0.7-1.7,2.2
		c-0.2,0.7-0.3,1.4-0.3,2.1c0,0.7,0.1,1.4,0.2,2c0.3,1.5,0.9,2.3,1.7,2.3C47,109.5,47.8,108.7,48.1,107z"/>
	<path class="st2" d="M131.8,20.7c-0.1,0.2-0.3,0.4-0.4,0.5C131.5,21,131.6,20.9,131.8,20.7L131.8,20.7z"/>
	<path class="st2" d="M131,21.6c-0.3,0.3-0.6,0.5-0.9,0.7l0,0c0,0,0,0,0,0C130.5,22,130.8,21.8,131,21.6z"/>
	<path class="st4" d="M118.4,67.8c5.2,1.3,9-2.7,14.1-7.7c5.1-5.1,10.5-5.4,10.5-5.4c-3.8-3.8-11.1-1.1-11.1-1.1
		c-2.1-2.1-2.9-3.3-2.9-3.3c-1.4,2.9-3.9,3.7-3.9,3.7c-3-3-5.5-1.6-5.5-1.6c6,6.4-1.9,10.1-5.3,7.2c-2.3-2-2-7.9-0.2-16.6
		c1.8-8.4-4.4-7.9-4.7-7.9c-0.3,0-6.5-0.5-4.7,7.9c1.8,8.6,2.1,14.6-0.2,16.6c-3.4,2.9-11.3-0.8-5.3-7.2c0,0-2.5-1.5-5.5,1.6
		c0,0-2.4-0.8-3.9-3.7c0,0-0.8,1.3-2.9,3.3c0,0-7.2-2.8-11.1,1.1c0,0,5.5,0.3,10.5,5.4c5.1,5.1,8.8,9.1,14.1,7.7
		c5.2-1.3,5.2-3.9,6.1-5.8c0,0,2.8,5.7,0.3,8.6c-1.8,2.1-2.9,2.7-4.6,2.9c-1.7,0.2,5.8,6.8,7.1,8.5c1.3-1.7,8.9-8.3,7.1-8.5
		c-1.7-0.2-2.9-0.8-4.6-2.9c-2.5-3,0.3-8.6,0.3-8.6C113.1,63.8,113.1,66.4,118.4,67.8z"/>
	<path class="st4" d="M152.4,4.8c8.7-1.8,14.6-2.1,16.6,0.2c2.9,3.4-0.8,11.3-7.2,5.3c0,0-1.5,2.5,1.6,5.5c0,0-0.8,2.4-3.7,3.8
		c0,0,1.3,0.8,3.3,2.9c0,0-2.8,7.2,1.1,11.1c0,0,0.4-5.5,5.4-10.5c5.1-5.1,9.1-8.9,7.7-14.1c-1.3-5.2-3.9-5.2-5.8-6.1
		c0,0,5.7-2.8,8.7-0.3c2.1,1.7,2.7,2.9,2.9,4.6c0.2,1.7,6.8-5.8,8.5-7.1c0,0,0,0,0,0h-47v0C144.5,0,143.8,6.6,152.4,4.8z"/>
	<path class="st4" d="M216.5,61.4c-0.5-3.3-2-7.9-7.1-10.2c0,0,6.2-3.3,5.9-7.7c-0.3-4.4-3.7-6.5-6.2-9.4c-2.4-2.9-3-8-2.7-9
		c0.3-1-10,5.4-7.5,14.2c0,0-1.9,4.7-8.9,2.8c0,0-2.9,3.4,5.2,11c0,0-8.5,2.7-8.5,9.6c0,0,3-2.7,8.1-0.5c5.1,2.2,13.4,2.2,13.8-7.8
		c0,0,3.9,1.5,4.4,6.8c0,0,0,0,0,0.1c0.5-0.1,1.1-0.1,1.7-0.1C215.4,61.3,216,61.3,216.5,61.4z"/>
	<path class="st4" d="M200,15.7c-9.7,4.5-17.2,13.5-21.5,23.3c-4.1,9.2-3.2,19.3-1.1,28.9v0c-9.6-2.1-19.7-3-28.9,1.1
		c-9.8,4.3-18.8,11.8-23.3,21.5c-1.5,3.3-4.5,11.2-3.8,19c-0.8,7.8,2.2,15.7,3.8,19c4.5,9.7,13.5,17.2,23.3,21.5
		c9.2,4.1,19.3,3.2,28.9,1.1v0c-2.1,9.6-3,19.7,1.1,28.9c4.4,9.8,11.8,18.8,21.5,23.3c3.3,1.5,11.2,4.5,19,3.8v-3.2
		c-2.2,0.3-5.4-0.1-7.5-0.6c-8.6-2.1-17.2-7.6-22.9-14.1c-2.4-2.8-4.5-6.5-5.9-9.9c-3.7-8.6-5.4-21.6,0.7-29.7
		c-0.8-0.5-1.6-1.2-2.4-1.9c0,0,0,0,0,0c0,0,0,0,0,0c-0.8-0.8-1.4-1.6-1.9-2.4c-8.1,6-21,4.3-29.7,0.7c-3.4-1.5-7.1-3.5-9.9-5.9
		c-6.5-5.7-12.1-14.4-14.1-22.9c-0.5-2-0.8-5.3-0.6-7.5c-0.3-2.2,0.1-5.4,0.6-7.5c2.1-8.6,7.6-17.2,14.1-22.9
		c2.8-2.4,6.5-4.5,9.9-5.9c8.6-3.7,21.6-5.4,29.7,0.7c0.5-0.8,1.2-1.6,1.9-2.4c0,0,0,0,0,0c0,0,0,0,0,0c0.8-0.8,1.6-1.4,2.4-1.9
		c-6-8.1-4.4-21-0.7-29.7c1.4-3.4,3.5-7.1,5.9-9.9c5.7-6.5,14.4-12.1,22.9-14.1c2-0.5,5.3-0.9,7.5-0.6V12
		C211.2,11.2,203.3,14.2,200,15.7z"/>
	<path class="st4" d="M164.8,55.3c-0.1,0-49.2-1.5-54.1,54.2c4.9,55.7,54,54.2,54.1,54.2c0,0.1-1.6,49.2,54.2,54.1v-3.5
		c-9.9,0.4-21.1-3.6-29.1-9.3c-4-2.9-7.5-6.2-10.8-9.8c-12.9-13.7-10.5-35.2-10.5-35.3v0c0,0-21.6,2.4-35.3-10.5
		c-3.6-3.4-6.9-6.8-9.8-10.8c-5.7-8-9.7-19.1-9.3-29.1c-0.4-9.9,3.6-21.1,9.3-29.1c2.9-4,6.2-7.5,9.8-10.8
		c13.7-12.9,35.3-10.5,35.3-10.5v0c0-0.1-2.4-21.6,10.5-35.3c3.4-3.6,6.8-6.9,10.8-9.8c8-5.7,19.2-9.7,29.1-9.3V1.3
		C163.3,6.2,164.8,55.2,164.8,55.3z"/>
	<path class="st3" d="M179.1,23.9c-12.9,13.7-10.5,35.2-10.5,35.3v0c0,0-21.6-2.4-35.3,10.5c-3.6,3.4-6.9,6.8-9.8,10.8
		c-5.7,8-9.7,19.1-9.3,29.1c-0.4,9.9,3.6,21.1,9.3,29.1c2.9,4,6.2,7.5,9.8,10.8c13.7,12.9,35.3,10.5,35.3,10.5v0
		c0,0.1-2.4,21.6,10.5,35.3c3.4,3.6,6.8,6.9,10.8,9.8c8,5.7,19.2,9.7,29.1,9.3V207c-7.8,0.8-15.7-2.2-19-3.8
		c-9.7-4.5-17.2-13.5-21.5-23.3c-4.1-9.2-3.2-19.3-1.1-28.9v0c-9.6,2.1-19.7,3-28.9-1.1c-9.8-4.3-18.8-11.8-23.3-21.5
		c-1.5-3.3-4.5-11.2-3.8-19c-0.8-7.8,2.2-15.7,3.8-19c4.5-9.7,13.5-17.2,23.3-21.5c9.2-4.1,19.3-3.2,28.9-1.1v0
		c-2.1-9.6-3-19.7,1.1-28.9c4.4-9.8,11.8-18.8,21.5-23.3c3.3-1.5,11.2-4.5,19-3.8V4.8c-9.9-0.4-21.1,3.6-29.1,9.3
		C185.9,16.9,182.5,20.3,179.1,23.9z"/>
	<path class="st4" d="M216.7,65c1.5-0.3,2.3-0.9,2.3-1.7c0-0.8-0.8-1.5-2.5-1.8c-0.5-0.1-1.2-0.2-1.8-0.2c-0.6,0-1.2,0-1.7,0.1
		c-1.7,0.3-2.6,0.9-2.6,1.7c0,0.7,0.7,1.4,2.2,1.7c0.6,0.2,1.4,0.3,2.1,0.3C215.4,65.2,216.1,65.1,216.7,65z"/>
	<path class="st4" d="M180.9,71.4C180.9,71.4,180.9,71.5,180.9,71.4c-0.8,0.8-1.4,1.6-2,2.4c-1.6,2.4-2.1,4.6-1.1,5.5
		c0.9,0.9,3,0.4,5.2-1.2c4.4,7.3,2.5,19.3-5.3,23.5c-0.9,0.5-2.1,1-3.3,1.4c0.2,0.7,0.3,1.4,0.3,2.1c0,0.7-0.1,1.4-0.2,2
		c0.2,0,0.3,0,0.3,0c16.8-3.6,14.7-23,14.7-23l8,8c-0.9,0.3-1.7,0.7-2.5,1.4c-2.3,2.3-2.3,6.1,0,8.4c2.3,2.3,6.1,2.3,8.4,0
		c0.1-0.1,0.1-0.1,0.2-0.2c0.3,0.7,0.7,1.4,1.3,2c2.3,2.3,6.1,2.3,8.4,0l0,0c2.3-2.3,2.3-6.1,0-8.4c-0.6-0.6-1.3-1-2-1.3
		c0.1-0.1,0.1-0.1,0.2-0.2c2.3-2.3,2.3-6.1,0-8.4c-2.3-2.3-6.1-2.3-8.4,0c-0.7,0.7-1.2,1.6-1.4,2.4l-8-8c0,0,19.3,2.1,23-14.7
		c0,0,0-0.1,0-0.3c-0.6,0.1-1.3,0.2-2,0.2c-0.8,0-1.5-0.1-2.1-0.3c-0.4,1.2-0.9,2.4-1.4,3.3C207,76,195,78,187.7,73.5
		c1.5-2.2,2-4.2,1.1-5.2c-0.9-1-3.2-0.4-5.5,1.1C182.5,70,181.7,70.7,180.9,71.4C180.9,71.4,180.9,71.4,180.9,71.4z"/>
	<path class="st4" d="M131.3,21.2c-0.1,0.1-0.2,0.2-0.3,0.4c-0.3,0.3-0.6,0.5-0.9,0.7c0,0,0,0,0,0c0,0,0,0,0,0c0,0,0,0,0,0
		c3.1,2.8,14,13.6,9.9,23.2c0,0,1.2,3.3,7.2-2.8c0,0,4.6,4.1,8.4,3.3l0,0c0,0,0,0,0,0c0.8-3.7-3.3-8.3-3.3-8.3
		c6.2-6,2.8-7.2,2.8-7.2c-9.6,4.1-20.5-6.8-23.2-9.9c0,0,0,0,0,0C131.6,20.9,131.5,21,131.3,21.2z"/>
	<path class="st4" d="M164,99.1c10-0.4,10-8.7,7.8-13.8c-2.2-5.1,0.5-8.1,0.5-8.1c-7,0-9.6,8.5-9.6,8.5c-7.6-8.1-11-5.2-11-5.2
		c1.9,7-2.8,8.9-2.8,8.9c-8.8-2.4-15.2,7.9-14.2,7.5c1-0.3,6.1,0.2,9,2.7c2.9,2.4,5,5.8,9.4,6.2c4.4,0.3,7.7-5.9,7.7-5.9
		c2.2,5.1,6.8,6.6,10.2,7.1c-0.1-0.6-0.2-1.2-0.2-1.8c0-0.6,0-1.2,0.1-1.7c0,0,0,0-0.1,0C165.5,103,164,99.1,164,99.1z"/>
	<path class="st4" d="M174.3,103c-0.4-1.5-1-2.2-1.7-2.2c-0.8,0-1.5,1-1.7,2.7c-0.1,0.5-0.1,1.1-0.1,1.7c0,0.6,0.1,1.2,0.2,1.8
		c0.3,1.7,1,2.5,1.8,2.5c0.8,0,1.4-0.8,1.7-2.3c0.1-0.6,0.2-1.3,0.2-2C174.6,104.4,174.5,103.7,174.3,103z"/>
	<path class="st2" d="M87.2,198.3c0.1-0.2,0.3-0.4,0.4-0.5C87.5,198,87.4,198.1,87.2,198.3L87.2,198.3z"/>
	<path class="st2" d="M88,197.4c0.3-0.3,0.6-0.5,0.9-0.7l0,0c0,0,0,0,0,0C88.5,197,88.2,197.2,88,197.4z"/>
	<path class="st4" d="M66.6,214.2c-8.7,1.8-14.6,2.1-16.6-0.2c-2.9-3.4,0.8-11.3,7.2-5.3c0,0,1.5-2.5-1.6-5.5c0,0,0.8-2.4,3.7-3.8
		c0,0-1.3-0.8-3.3-2.9c0,0,2.8-7.2-1.1-11.1c0,0-0.4,5.5-5.4,10.5c-5.1,5.1-9.1,8.9-7.7,14.1c1.3,5.2,3.9,5.2,5.8,6.1
		c0,0-5.7,2.8-8.7,0.3c-2.1-1.7-2.7-2.9-2.9-4.6c-0.2-1.7-6.8,5.8-8.5,7.1c0,0,0,0,0,0h47v0C74.5,219,75.2,212.4,66.6,214.2z"/>
	<path class="st4" d="M2.5,157.6c0.5,3.3,2,7.9,7.1,10.2c0,0-6.2,3.3-5.9,7.7c0.3,4.4,3.7,6.5,6.2,9.4c2.4,2.9,3,8,2.7,9
		c-0.3,1,10-5.4,7.5-14.2c0,0,1.9-4.7,8.9-2.8c0,0,2.9-3.4-5.2-11c0,0,8.5-2.7,8.5-9.6c0,0-3,2.7-8.1,0.5
		c-5.1-2.2-13.4-2.2-13.8,7.8c0,0-3.9-1.5-4.4-6.8c0,0,0,0,0-0.1c-0.5,0.1-1.1,0.1-1.7,0.1C3.6,157.7,3,157.7,2.5,157.6z"/>
	<path class="st4" d="M19,203.3c9.7-4.5,17.2-13.5,21.5-23.3c4.1-9.2,3.2-19.3,1.1-28.9v0c9.6,2.1,19.7,3,28.9-1.1
		c9.8-4.3,18.8-11.8,23.3-21.5c1.5-3.3,4.5-11.2,3.8-19c0.8-7.8-2.2-15.7-3.8-19C89.3,80.8,80.3,73.3,70.5,69
		c-9.2-4.1-19.3-3.2-28.9-1.1v0c2.1-9.6,3-19.7-1.1-28.9C36.2,29.2,28.7,20.3,19,15.7C15.7,14.2,7.8,11.2,0,12v3.2
		c2.2-0.3,5.4,0.1,7.5,0.6c8.6,2.1,17.2,7.6,22.9,14.1c2.4,2.8,4.5,6.5,5.9,9.9c3.7,8.6,5.4,21.6-0.7,29.7c0.8,0.5,1.6,1.2,2.4,1.9
		c0,0,0,0,0,0c0,0,0,0,0,0c0.8,0.8,1.4,1.6,1.9,2.4c8.1-6,21-4.3,29.7-0.7c3.4,1.5,7.1,3.5,9.9,5.9c6.5,5.7,12.1,14.4,14.1,22.9
		c0.5,2,0.8,5.3,0.6,7.5c0.3,2.2-0.1,5.4-0.6,7.5c-2.1,8.6-7.6,17.2-14.1,22.9c-2.8,2.4-6.5,4.5-9.9,5.9c-8.6,3.7-21.6,5.4-29.7-0.7
		c-0.5,0.8-1.2,1.6-1.9,2.4c0,0,0,0,0,0c0,0,0,0,0,0c-0.8,0.8-1.6,1.4-2.4,1.9c6,8.1,4.4,21,0.7,29.7c-1.5,3.4-3.5,7.1-5.9,9.9
		c-5.7,6.5-14.4,12.1-22.9,14.1c-2,0.5-5.3,0.9-7.5,0.6v3.2C7.8,207.8,15.7,204.8,19,203.3z"/>
	<path class="st4" d="M54.2,163.7c0.1,0,49.2,1.5,54.1-54.2c-4.9-55.7-54-54.2-54.1-54.2c0-0.1,1.6-49.2-54.2-54.1v3.5
		c9.9-0.4,21.1,3.6,29.1,9.3c4,2.9,7.5,6.2,10.8,9.8C52.8,37.5,50.4,59,50.4,59.1v0c0,0,21.6-2.4,35.3,10.5
		c3.6,3.4,6.9,6.8,9.8,10.8c5.7,8,9.7,19.1,9.3,29.1c0.4,9.9-3.6,21.1-9.3,29.1c-2.9,4-6.2,7.5-9.8,10.8
		c-13.7,12.9-35.3,10.5-35.3,10.5v0c0,0.1,2.4,21.6-10.5,35.3c-3.4,3.6-6.8,6.9-10.8,9.8c-8,5.7-19.2,9.7-29.1,9.3v3.5
		C55.7,212.8,54.2,163.8,54.2,163.7z"/>
	<path class="st3" d="M39.9,195.1c12.9-13.7,10.5-35.2,10.5-35.3v0c0,0,21.6,2.4,35.3-10.5c3.6-3.4,6.9-6.8,9.8-10.8
		c5.7-8,9.7-19.1,9.3-29.1c0.4-9.9-3.6-21.1-9.3-29.1c-2.9-4-6.2-7.5-9.8-10.8C72,56.7,50.4,59.1,50.4,59.1v0
		c0-0.1,2.4-21.6-10.5-35.3c-3.4-3.6-6.8-6.9-10.8-9.8C21.1,8.4,9.9,4.4,0,4.8V12c7.8-0.8,15.7,2.2,19,3.8
		c9.7,4.5,17.2,13.5,21.5,23.3c4.1,9.2,3.2,19.3,1.1,28.9v0c9.6-2.1,19.7-3,28.9,1.1c9.8,4.3,18.8,11.8,23.3,21.5
		c1.5,3.3,4.5,11.2,3.8,19c0.8,7.8-2.2,15.7-3.8,19c-4.5,9.7-13.5,17.2-23.3,21.5c-9.2,4.1-19.3,3.2-28.9,1.1v0
		c2.1,9.6,3,19.7-1.1,28.9c-4.4,9.8-11.8,18.8-21.5,23.3c-3.3,1.5-11.2,4.5-19,3.8v7.2c9.9,0.4,21.1-3.6,29.1-9.3
		C33.1,202.1,36.5,198.7,39.9,195.1z"/>
	<path class="st4" d="M2.3,154C0.8,154.3,0,155,0,155.7c0,0.8,0.8,1.5,2.5,1.8c0.5,0.1,1.2,0.2,1.8,0.2c0.6,0,1.2,0,1.7-0.1
		c1.7-0.3,2.6-0.9,2.6-1.7c0-0.7-0.7-1.4-2.2-1.7c-0.6-0.2-1.4-0.3-2.1-0.3C3.6,153.8,2.9,153.9,2.3,154z"/>
	<path class="st4" d="M38.1,147.6C38.1,147.6,38.1,147.5,38.1,147.6c0.8-0.8,1.4-1.6,2-2.4c1.6-2.4,2.1-4.6,1.1-5.5
		c-0.9-0.9-3-0.4-5.2,1.2c-4.4-7.3-2.5-19.3,5.3-23.5c0.9-0.5,2.1-1,3.3-1.4c-0.2-0.7-0.3-1.4-0.3-2.1c0-0.7,0.1-1.4,0.2-2
		c-0.2,0-0.3,0-0.3,0c-16.8,3.6-14.7,23-14.7,23l-8-8c0.9-0.3,1.7-0.7,2.5-1.4c2.3-2.3,2.3-6.1,0-8.4c-2.3-2.3-6.1-2.3-8.4,0
		c-0.1,0.1-0.1,0.1-0.2,0.2c-0.3-0.7-0.7-1.4-1.3-2c-2.3-2.3-6.1-2.3-8.4,0l0,0c-2.3,2.3-2.3,6.1,0,8.4c0.6,0.6,1.3,1,2,1.3
		c-0.1,0.1-0.1,0.1-0.2,0.2c-2.3,2.3-2.3,6.1,0,8.4c2.3,2.3,6.1,2.3,8.4,0c0.7-0.7,1.2-1.6,1.4-2.4l8,8c0,0-19.3-2.1-23,14.7
		c0,0,0,0.1,0,0.3c0.6-0.1,1.3-0.2,2-0.2c0.8,0,1.5,0.1,2.1,0.3c0.4-1.2,0.9-2.4,1.4-3.3C12,143,24,141,31.3,145.5
		c-1.5,2.2-2,4.2-1.1,5.2c0.9,1,3.2,0.4,5.5-1.1C36.5,149,37.3,148.3,38.1,147.6C38.1,147.6,38.1,147.6,38.1,147.6z"/>
	<path class="st4" d="M87.7,197.8c0.1-0.1,0.2-0.2,0.3-0.4c0.3-0.3,0.6-0.5,0.9-0.7c0,0,0,0,0,0c0,0,0,0,0,0c0,0,0,0,0,0
		c-3.1-2.8-14-13.6-9.9-23.2c0,0-1.2-3.3-7.2,2.8c0,0-4.6-4.1-8.4-3.3l0,0c0,0,0,0,0,0c-0.8,3.7,3.3,8.3,3.3,8.3
		c-6.2,6-2.8,7.2-2.8,7.2c9.6-4.1,20.5,6.8,23.2,9.9c0,0,0,0,0,0C87.4,198.1,87.5,198,87.7,197.8z"/>
	<path class="st4" d="M55,119.9c-10,0.4-10,8.7-7.8,13.8c2.2,5.1-0.5,8.1-0.5,8.1c7,0,9.6-8.5,9.6-8.5c7.6,8.1,11,5.2,11,5.2
		c-1.9-7,2.8-8.9,2.8-8.9c8.8,2.4,15.2-7.9,14.2-7.5c-1,0.3-6.1-0.2-9-2.7c-2.9-2.4-5-5.8-9.4-6.2c-4.4-0.3-7.7,5.9-7.7,5.9
		c-2.2-5.1-6.8-6.6-10.2-7.1c0.1,0.6,0.2,1.2,0.2,1.8c0,0.6,0,1.2-0.1,1.7c0,0,0,0,0.1,0C53.5,116,55,119.9,55,119.9z"/>
	<path class="st4" d="M44.7,116c0.4,1.4,1,2.2,1.7,2.2c0.8,0,1.5-1,1.7-2.7c0.1-0.5,0.1-1.1,0.1-1.7c0-0.6-0.1-1.2-0.2-1.8
		c-0.3-1.7-1-2.5-1.8-2.5c-0.8,0-1.4,0.8-1.7,2.3c-0.1,0.6-0.2,1.3-0.2,2C44.4,114.6,44.5,115.3,44.7,116z"/>
	<path class="st2" d="M131.8,198.3L131.8,198.3c-0.1-0.2-0.3-0.3-0.4-0.5C131.5,198,131.6,198.1,131.8,198.3z"/>
	<path class="st2" d="M130.1,196.7L130.1,196.7c0.3,0.3,0.6,0.5,0.9,0.8C130.8,197.2,130.5,197,130.1,196.7
		C130.2,196.7,130.2,196.7,130.1,196.7z"/>
	<path class="st3" d="M131.8,198.3C131.8,198.3,131.8,198.3,131.8,198.3L131.8,198.3c-0.2-0.2-0.3-0.4-0.5-0.6
		c-0.1-0.1-0.2-0.2-0.3-0.4c-0.3-0.3-0.6-0.5-0.9-0.7l0,0c0,0,0,0,0,0c0,0,0,0,0,0c-5.8-5.1-13.3-7.8-20.6-7.8v0c0,0,0,0,0,0
		s0,0,0,0v0c-7.3,0-14.8,2.6-20.6,7.8c0,0,0,0,0,0c0,0,0,0,0,0l0,0c-0.3,0.2-0.6,0.5-0.9,0.7c-0.1,0.1-0.2,0.2-0.3,0.4
		c-0.1,0.2-0.3,0.3-0.4,0.5l0,0c0,0,0,0,0,0l0,0c-5.2,5.8-7.8,13.3-7.8,20.6c0,0,0,0,0,0h4.4c0,0,0,0,0,0v-0.1
		c0-6.5,2.5-13.2,7.3-18.3c5.1-4.8,11.9-7.3,18.5-7.3c6.5,0,13.3,2.5,18.5,7.3c4.8,5.1,7.3,11.8,7.3,18.3v0.1c0,0,0,0,0,0h4.4
		c0,0,0,0,0,0C139.6,211.7,137,204.2,131.8,198.3L131.8,198.3z"/>
	<path class="st4" d="M116.6,145.5c1.7-0.2-5.8-6.8-7.1-8.5c-1.3,1.7-8.9,8.3-7.1,8.5c1.7,0.2,2.9,0.8,4.6,2.9
		c2.5,3-0.3,8.6-0.3,8.6c-0.8-1.8-0.8-4.4-6.1-5.8c-5.2-1.3-9,2.7-14.1,7.7c-5.1,5.1-10.5,5.4-10.5,5.4c3.8,3.8,11.1,1.1,11.1,1.1
		c2.1,2.1,2.9,3.3,2.9,3.3c1.4-2.9,3.9-3.7,3.9-3.7c3,3,5.5,1.6,5.5,1.6c-6-6.4,1.9-10.1,5.3-7.2c2.3,2,2,7.9,0.2,16.6
		c-1.8,8.4,4.4,7.9,4.7,7.9c0.3,0,6.5,0.5,4.7-7.9c-1.8-8.6-2.1-14.6,0.2-16.6c3.4-2.9,11.3,0.8,5.3,7.2c0,0,2.5,1.5,5.5-1.6
		c0,0,2.4,0.8,3.9,3.7c0,0,0.8-1.3,2.9-3.3c0,0,7.2,2.8,11.1-1.1c0,0-5.5-0.3-10.5-5.4c-5.1-5.1-8.8-9.1-14.1-7.7
		c-5.2,1.3-5.2,3.9-6.1,5.8c0,0-2.8-5.7-0.3-8.6C113.7,146.2,114.9,145.7,116.6,145.5z"/>
	<path class="st4" d="M124.3,212.5c-2.1-0.1-3.4,2-5.1,2.8c-1.9,0.8-3.6,0.6-5-0.9c-1.6-1.4-1.8-3.2-0.9-5c0.8-1.8,2.8-3,2.8-5.2
		c-0.1-2.2-1.7-4.6-3.9-5.1c-0.3-0.1-1.9-0.2-2.6,0.1c-0.7-0.3-2.3-0.1-2.6-0.1c-2.1,0.5-3.8,2.9-3.9,5.1c-0.1,2.1,2,3.4,2.8,5.2
		c0.8,1.8,0.6,3.6-0.9,5c-1.4,1.6-3.2,1.8-5,0.9c-1.8-0.8-3-2.8-5.1-2.8c-1.7,0.1-3.5,1-4.5,2.4c-0.7,1-1,2.6-1,4.1h20.3h20.3
		c0-1.5-0.3-3.1-1-4.1C127.9,213.5,126,212.5,124.3,212.5z"/>
	<path class="st4" d="M183,211.8c-0.2,1.7-0.8,2.9-2.9,4.6c-3,2.5-8.7-0.3-8.7-0.3c1.8-0.9,4.4-0.8,5.8-6.1c1.4-5.2-2.7-9-7.7-14.1
		c-5.1-5.1-5.4-10.5-5.4-10.5c-3.8,3.8-1.1,11.1-1.1,11.1c-2.1,2.1-3.3,2.9-3.3,2.9c2.9,1.4,3.7,3.8,3.7,3.8c-3,3-1.6,5.5-1.6,5.5
		c6.4-6,10.1,1.9,7.2,5.3c-2,2.3-7.9,2-16.6,0.2c-8.6-1.8-7.9,4.7-7.9,4.7v0h47c0,0,0,0,0,0C189.8,217.6,183.2,210.1,183,211.8z"/>
	<path class="st4" d="M213,157.6C213,157.6,213,157.7,213,157.6c-0.5,5.4-4.4,6.9-4.4,6.9c-0.4-10-8.7-10-13.8-7.8
		c-5.1,2.2-8.1-0.5-8.1-0.5c0,7,8.5,9.6,8.5,9.6c-8.1,7.6-5.2,11-5.2,11c7-1.9,8.9,2.8,8.9,2.8c-2.4,8.8,7.9,15.2,7.5,14.2
		c-0.3-1,0.2-6.1,2.7-9c2.4-2.9,5.8-5,6.2-9.4c0.3-4.4-5.9-7.7-5.9-7.7c5.1-2.2,6.6-6.9,7.1-10.2c-0.5,0.1-1.2,0.2-1.8,0.2
		C214.1,157.7,213.5,157.7,213,157.6z"/>
	<path class="st4" d="M174.3,116c1.2,0.4,2.4,0.9,3.3,1.4c7.8,4.2,9.8,16.1,5.3,23.5c-2.2-1.5-4.2-2-5.2-1.2c-1,0.9-0.4,3.1,1.1,5.5
		c0.5,0.8,1.2,1.6,1.9,2.4c0,0,0,0,0,0c0,0,0,0,0,0c0.8,0.8,1.6,1.4,2.4,1.9c2.4,1.6,4.6,2.1,5.5,1.1c0.9-0.9,0.4-3-1.1-5.2
		c7.3-4.4,19.3-2.5,23.5,5.3c0.5,0.9,1,2.1,1.4,3.3c0.6-0.2,1.4-0.3,2.1-0.3c0.7,0,1.4,0.1,2,0.2c0-0.2,0-0.3,0-0.3
		c-3.7-16.8-23-14.7-23-14.7l8-8c0.3,0.9,0.7,1.7,1.4,2.4c2.3,2.3,6.1,2.3,8.4,0c2.3-2.3,2.3-6.1,0-8.4c-0.1-0.1-0.1-0.1-0.2-0.2
		c0.7-0.3,1.4-0.7,2-1.3c2.3-2.3,2.3-6.1,0-8.4l0,0c-2.3-2.3-6.1-2.3-8.4,0c-0.6,0.6-1,1.3-1.3,2c-0.1-0.1-0.1-0.1-0.2-0.2
		c-2.3-2.3-6.1-2.3-8.4,0c-2.3,2.3-2.3,6.1,0,8.4c0.7,0.7,1.6,1.2,2.5,1.4l-8,8c0,0,2.1-19.3-14.7-23c0,0-0.1,0-0.3,0
		c0.1,0.6,0.2,1.3,0.2,2C174.6,114.6,174.5,115.3,174.3,116z"/>
	<path class="st4" d="M212.5,154.1c-1.5,0.3-2.2,1-2.2,1.7c0,0.8,0.9,1.5,2.6,1.7c0.5,0.1,1.1,0.1,1.7,0.1c0.6,0,1.2-0.1,1.8-0.2
		c1.7-0.3,2.5-1,2.5-1.8c0-0.8-0.8-1.4-2.3-1.7c-0.6-0.1-1.3-0.2-2-0.2C213.9,153.9,213.2,154,212.5,154.1z"/>
	<path class="st4" d="M130.1,196.7C130.2,196.7,130.2,196.7,130.1,196.7c0.3,0.3,0.6,0.5,0.9,0.8c0.1,0.1,0.2,0.2,0.3,0.4
		c0.1,0.2,0.3,0.4,0.5,0.5c0,0,0,0,0,0c2.8-3.1,13.6-14,23.2-9.9c0,0,3.3-1.2-2.8-7.2c0,0,4.1-4.6,3.3-8.3c0,0,0,0,0,0l0,0
		c-3.7-0.8-8.4,3.3-8.4,3.3c-6-6.2-7.2-2.8-7.2-2.8C144.1,183,133.2,193.9,130.1,196.7C130.1,196.6,130.1,196.6,130.1,196.7
		C130.1,196.7,130.1,196.7,130.1,196.7z"/>
	<path class="st4" d="M170.9,112c-3.3,0.5-7.9,2-10.2,7.1c0,0-3.3-6.2-7.7-5.9c-4.4,0.3-6.5,3.7-9.4,6.2c-2.9,2.4-8,3-9,2.7
		c-1-0.3,5.4,10,14.2,7.5c0,0,4.7,1.9,2.8,8.9c0,0,3.4,2.9,11-5.2c0,0,2.7,8.5,9.6,8.5c0,0-2.7-3-0.5-8.1c2.2-5.1,2.2-13.4-7.8-13.8
		c0,0,1.5-3.9,6.8-4.4c0,0,0,0,0.1,0c-0.1-0.5-0.1-1.1-0.1-1.7C170.8,113.1,170.8,112.5,170.9,112z"/>
	<path class="st4" d="M170.9,112c-0.1,0.6-0.2,1.2-0.2,1.8c0,0.6,0,1.2,0.1,1.7c0.3,1.7,0.9,2.6,1.7,2.7c0.7,0,1.4-0.7,1.7-2.2
		c0.2-0.7,0.3-1.4,0.3-2.1c0-0.7-0.1-1.4-0.2-2c-0.3-1.5-0.9-2.3-1.7-2.3C172,109.5,171.2,110.3,170.9,112z"/>
</g>
</svg>
